External Loads File
version=1
nRows=85
nColumns=13
Range=5.000000e-03-10 seconds
endheader
time 	forceRightX 	forceRightY 	forceRightZ 	pointRightX 	pointRightY 	pointRightZ 	forceLeftX 	forceLeftY 	forceLeftZ 	pointLeftX 	pointLeftY 	pointLeftZ 		
7.505000 32.254855 31.086409 -0.000000 0.143358 0.463093 -0.103615 96.609107 750.637797 -0.000000 0.243998 0.160668 -0.343288
7.510000 29.496412 29.830601 -0.000000 0.151807 0.469021 -0.104338 116.007481 757.301282 -0.000000 0.235413 0.155695 -0.343247
7.515000 25.383956 29.407825 -0.000000 0.160895 0.474332 -0.104669 134.892225 762.785591 -0.000000 0.226569 0.151455 -0.343288
7.520000 20.385250 30.483049 -0.000000 0.170130 0.478854 -0.104949 152.535353 767.045393 -0.000000 0.217470 0.147671 -0.343230
7.525000 14.968850 33.393831 -0.000000 0.179727 0.482433 -0.105220 169.245448 769.682844 -0.000000 0.208192 0.144595 -0.343363
7.530000 9.448712 38.142994 -0.000000 0.189376 0.485385 -0.105397 184.492320 770.323029 -0.000000 0.198817 0.142097 -0.343522
7.535000 4.012306 44.402719 -0.000000 0.199167 0.487582 -0.105596 198.539262 768.325361 -0.000000 0.189340 0.140164 -0.343670
7.540000 -1.301542 51.647518 -0.000000 0.209063 0.489019 -0.105824 211.462288 763.046185 -0.000000 0.179734 0.138926 -0.343850
7.545000 -6.563091 59.259033 -0.000000 0.218922 0.489997 -0.106014 222.836094 753.988647 -0.000000 0.170071 0.138342 -0.343992
7.550000 -11.858872 66.601981 -0.000000 0.228441 0.490236 -0.106534 232.274291 740.679957 -0.000000 0.160333 0.138688 -0.344023
7.555000 -17.173062 73.129406 -0.000000 0.238148 0.489826 -0.106490 240.331206 722.374522 -0.000000 0.150687 0.139666 -0.344155
7.560000 -22.549523 78.458353 -0.000000 0.247674 0.488781 -0.106953 246.480870 698.681956 -0.000000 0.141054 0.141196 -0.343507
7.565000 -28.035927 82.410168 -0.000000 0.257012 0.487003 -0.107006 249.748795 669.427797 -0.000000 0.131790 0.143505 -0.343909
7.570000 -33.493918 85.030295 -0.000000 0.265871 0.484643 -0.107144 250.116732 634.183455 -0.000000 0.122704 0.146761 -0.343971
7.575000 -38.603275 86.562943 -0.000000 0.274330 0.481614 -0.107291 248.378414 592.341729 -0.000000 0.113922 0.152386 -0.343871
7.580000 -43.715790 87.042776 -0.000000 0.282504 0.477995 -0.107403 240.862367 545.502353 -0.000000 0.105494 0.155088 -0.344068
7.585000 -48.176688 87.033318 -0.000000 0.290242 0.473554 -0.107488 231.140503 492.678388 -0.000000 0.097512 0.160438 -0.343687
7.590000 -52.172538 86.740763 -0.000000 0.297477 0.468509 -0.107629 217.602829 435.601626 -0.000000 0.090007 0.166306 -0.343425
7.595000 -55.713810 86.447551 -0.000000 0.304229 0.462883 -0.107644 200.442831 375.792552 -0.000000 0.083229 0.172808 -0.343066
7.600000 -58.813660 86.472761 -0.000000 0.310598 0.456525 -0.107650 180.381059 314.998324 -0.000000 0.077119 0.179782 -0.342681
7.605000 -61.684948 87.077240 -0.000000 0.316344 0.449473 -0.107418 157.893187 255.471445 -0.000000 0.071785 0.187131 -0.342322
7.610000 -64.496098 88.617242 -0.000000 0.321563 0.441877 -0.107120 134.116554 199.249457 -0.000000 0.066979 0.194685 -0.342055
7.615000 -67.496828 91.428038 -0.000000 0.326277 0.433751 -0.106827 110.160572 148.251246 -0.000000 0.062739 0.202211 -0.341841
7.620000 -70.719214 96.004406 -0.000000 0.330484 0.425050 -0.106453 87.470326 103.699126 -0.000000 0.058880 0.210193 -0.341580
7.625000 -74.403098 102.665969 -0.000000 0.334026 0.415967 -0.106035 66.927134 66.510427 -0.000000 0.055495 0.218432 -0.341542
7.630000 -78.615939 111.834260 -0.000000 0.336953 0.406555 -0.105656 49.403886 36.778170 -0.000000 0.052553 0.226884 -0.341507
7.635000 -83.246090 123.996793 -0.000000 0.339420 0.396784 -0.105648 35.441554 14.019296 -0.000000 0.049833 0.235586 -0.341532
7.640000 -88.257510 139.451689 -0.000000 0.341195 0.386645 -0.105847 25.156807 -2.542885 -0.000000 0.047636 0.244588 -0.341630
7.645000 -93.402317 158.440582 -0.000000 0.342353 0.376153 -0.105725 18.370791 -13.929510 -0.000000 0.045778 0.253866 -0.341612
7.650000 -98.499778 180.928212 -0.000000 0.342856 0.365304 -0.105617 14.674252 -21.196195 -0.000000 0.044559 0.263307 -0.341781
7.655000 -103.184739 206.738798 -0.000000 0.342812 0.354332 -0.105487 13.521432 -25.360896 -0.000000 0.043758 0.273016 -0.341817
7.660000 -107.073442 235.467231 -0.000000 0.342194 0.343149 -0.105393 14.322419 -27.304925 -0.000000 0.043523 0.282889 -0.341656
7.665000 -109.767393 266.533801 -0.000000 0.341201 0.331817 -0.105037 16.500457 -27.747917 -0.000000 0.043938 0.292847 -0.341621
7.670000 -111.049588 299.193309 -0.000000 0.339444 0.320519 -0.105193 19.529601 -27.210269 -0.000000 0.044881 0.302812 -0.341639
7.675000 -110.259059 332.876529 -0.000000 0.337653 0.309167 -0.104661 22.891967 -26.038075 -0.000000 0.046542 0.312871 -0.341982
7.680000 -107.015003 366.972861 -0.000000 0.334933 0.297941 -0.105331 26.194634 -24.383405 -0.000000 0.048700 0.323152 -0.341986
7.685000 -102.024836 400.719294 -0.000000 0.332039 0.287042 -0.105285 29.242262 -22.193350 -0.000000 0.051422 0.333134 -0.341950
7.690000 -94.622127 433.921284 -0.000000 0.328652 0.276185 -0.105408 31.876932 -19.457397 -0.000000 0.054697 0.342882 -0.342048
7.695000 -84.998858 466.226492 -0.000000 0.324924 0.265722 -0.105391 34.088595 -16.113796 -0.000000 0.058553 0.352513 -0.342083
7.700000 -72.241558 497.489289 -0.000000 0.320642 0.255307 -0.105345 35.887095 -12.209459 -0.000000 0.063043 0.362005 -0.342152
7.705000 -56.753271 527.270385 -0.000000 0.316108 0.245107 -0.105555 37.398239 -7.724295 -0.000000 0.068068 0.371326 -0.342223
7.710000 -38.354274 555.224106 -0.000000 0.310786 0.235252 -0.105521 38.786804 -2.752739 -0.000000 0.073687 0.380336 -0.342367
7.715000 -17.682998 580.970673 -0.000000 0.305104 0.225810 -0.105310 40.225151 2.525556 -0.000000 0.079731 0.389126 -0.342476
7.720000 5.172336 604.274483 -0.000000 0.298922 0.216738 -0.105107 41.794085 7.698815 -0.000000 0.086182 0.397733 -0.342602
7.725000 29.042980 625.012418 -0.000000 0.292506 0.208127 -0.104897 43.402987 12.245487 -0.000000 0.093135 0.405939 -0.342728
7.730000 54.758990 643.062131 -0.000000 0.285466 0.200051 -0.104402 44.798255 15.416000 -0.000000 0.100428 0.414331 -0.342743
7.735000 80.226193 658.476451 -0.000000 0.278284 0.192467 -0.103657 45.501451 16.727910 -0.000000 0.108196 0.422103 -0.342773
7.740000 105.189303 671.283801 -0.000000 0.270846 0.185450 -0.103503 44.992432 15.781212 -0.000000 0.116308 0.429450 -0.342723
7.745000 130.278690 681.368565 -0.000000 0.263158 0.178900 -0.103543 42.818321 12.443843 -0.000000 0.124803 0.437026 -0.342614
7.750000 153.917988 689.005441 -0.000000 0.255262 0.172979 -0.103514 38.653015 7.105290 -0.000000 0.133602 0.443993 -0.342684
7.755000 176.254987 694.174978 -0.000000 0.247016 0.167499 -0.103504 32.474087 0.358975 -0.000000 0.142630 0.450217 -0.342557
7.760000 197.118778 696.862586 -0.000000 0.238542 0.162611 -0.103484 24.513441 -7.001061 -0.000000 0.151860 0.456046 -0.342298
7.765000 216.407470 697.007289 -0.000000 0.229904 0.158334 -0.103382 15.185535 -14.178619 -0.000000 0.161377 0.461289 -0.342148
7.770000 233.666168 694.652305 -0.000000 0.221081 0.154547 -0.103205 4.978695 -20.506266 -0.000000 0.170979 0.465898 -0.342039
7.775000 248.285715 689.929245 -0.000000 0.212221 0.151354 -0.102949 -5.629622 -25.516254 -0.000000 0.180583 0.469873 -0.341819
7.780000 260.780222 682.595489 -0.000000 0.203200 0.148746 -0.102696 -16.263760 -28.903961 -0.000000 0.190315 0.472957 -0.341487
7.785000 271.649259 672.397710 -0.000000 0.194071 0.146950 -0.102418 -26.640474 -30.471604 -0.000000 0.200363 0.475460 -0.342123
7.790000 279.840208 659.743426 -0.000000 0.184937 0.145700 -0.102092 -36.503680 -30.213528 -0.000000 0.210341 0.476949 -0.341879
7.795000 285.791667 644.444386 -0.000000 0.175819 0.145174 -0.101805 -45.766464 -28.208664 -0.000000 0.220342 0.477953 -0.341675
7.800000 289.441020 626.378944 -0.000000 0.166769 0.145320 -0.101493 -54.414821 -24.660768 -0.000000 0.230218 0.478148 -0.341198
7.805000 291.481840 604.851897 -0.000000 0.157726 0.146137 -0.101266 -62.534495 -19.786022 -0.000000 0.240140 0.477636 -0.341274
7.810000 291.642939 579.375429 -0.000000 0.148807 0.147699 -0.101011 -70.187690 -13.907928 -0.000000 0.250076 0.476512 -0.341308
7.815000 289.345366 549.519618 -0.000000 0.140025 0.149922 -0.100855 -77.393954 -7.402271 -0.000000 0.259724 0.474698 -0.341480
7.820000 284.353039 514.749766 -0.000000 0.131543 0.152953 -0.100809 -84.132108 -0.616497 -0.000000 0.269140 0.472156 -0.341654
7.825000 276.411473 474.725829 -0.000000 0.123316 0.156713 -0.100830 -90.356094 6.095034 -0.000000 0.278309 0.468835 -0.342021
7.830000 264.544713 429.849053 -0.000000 0.115527 0.161106 -0.100919 -96.041699 12.255492 -0.000000 0.287025 0.464854 -0.342278
7.835000 248.418810 380.652811 -0.000000 0.108131 0.166062 -0.100949 -101.194900 17.566539 -0.000000 0.295275 0.460370 -0.342444
7.840000 227.828223 328.223472 -0.000000 0.101269 0.171585 -0.101098 -105.862690 21.893465 -0.000000 0.302995 0.455352 -0.342693
7.845000 203.105320 274.009220 -0.000000 0.094957 0.177639 -0.101264 -110.137089 25.378230 -0.000000 0.310176 0.449700 -0.343046
7.850000 174.797909 219.981545 -0.000000 0.089248 0.184092 -0.101352 -114.180066 28.285031 -0.000000 0.316848 0.443594 -0.343491
7.855000 144.087454 168.102006 -0.000000 0.084062 0.190843 -0.101391 -118.157540 31.102175 -0.000000 0.322912 0.436825 -0.343815
7.860000 112.352278 120.281492 -0.000000 0.079426 0.197737 -0.101373 -122.225504 34.346792 -0.000000 0.328466 0.429525 -0.344238
7.865000 81.225954 77.917032 -0.000000 0.075140 0.204906 -0.101388 -126.470670 38.661689 -0.000000 0.333341 0.421654 -0.344568
7.870000 52.171207 41.890617 -0.000000 0.071238 0.212379 -0.101360 -130.953950 44.643549 -0.000000 0.337692 0.413314 -0.344864
7.875000 26.343713 12.462093 -0.000000 0.067068 0.220012 -0.101528 -135.693471 52.902270 -0.000000 0.341449 0.404595 -0.345298
7.880000 4.475514 -10.614687 -0.000000 0.064168 0.228022 -0.100566 -140.861122 63.584355 -0.000000 0.344428 0.395797 -0.345624
7.885000 -13.137844 -28.081388 -0.000000 0.060966 0.236452 -0.100837 -146.160006 77.807511 -0.000000 0.346993 0.386312 -0.345812
7.890000 -26.585155 -40.730499 -0.000000 0.058381 0.245300 -0.100793 -151.640982 95.613633 -0.000000 0.348723 0.376502 -0.345963
7.895000 -36.245995 -49.370293 -0.000000 0.056257 0.254498 -0.100795 -157.074838 117.409491 -0.000000 0.349743 0.366196 -0.346194
7.900000 -42.578632 -54.780291 -0.000000 0.054742 0.263846 -0.100775 -162.492262 143.083715 -0.000000 0.350067 0.355759 -0.346319
7.905000 -46.291344 -57.508135 -0.000000 0.053764 0.273494 -0.100747 -167.676064 172.737410 -0.000000 0.349689 0.345126 -0.346493
7.910000 -48.088033 -57.942741 -0.000000 0.053287 0.283247 -0.100592 -172.445866 206.154885 -0.000000 0.348725 0.334215 -0.346654
7.915000 -48.513789 -56.319786 -0.000000 0.053364 0.293011 -0.100754 -176.612736 242.859844 -0.000000 0.347385 0.323126 -0.347029
7.920000 -47.877696 -52.779517 -0.000000 0.054037 0.302915 -0.100832 -179.939458 282.206963 -0.000000 0.345388 0.312109 -0.347004
7.925000 -46.335033 -47.439034 -0.000000 0.055262 0.312905 -0.100978 -181.875960 323.649306 -0.000000 0.343012 0.300997 -0.347553
